<svg width="45" height="37" viewBox="0 0 45 37" fill="none" xmlns="http://www.w3.org/2000/svg">
<path d="M38.5426 0.741211H8.75098C4.00723 0.741211 0.157227 4.59121 0.157227 9.33496V27.6683C0.157227 32.412 4.00723 36.262 8.75098 36.262H38.5426C39.4822 36.262 40.2614 35.4829 40.2614 34.5433C40.2614 33.6037 39.4822 32.8245 38.5426 32.8245C38.3364 32.8245 37.3051 32.7787 36.5031 31.9766C35.7239 31.1975 35.6781 30.235 35.6781 29.96V7.04329C35.6781 5.46204 36.9614 4.17871 38.5426 4.17871C40.1239 4.17871 41.4072 5.46204 41.4072 7.04329V13.9183C41.4072 14.8579 42.1864 15.637 43.126 15.637C44.0656 15.637 44.8447 14.8579 44.8447 13.9183V7.04329C44.8447 3.55996 42.026 0.741211 38.5426 0.741211ZM17.9176 27.0954H8.75098C7.81139 27.0954 7.03223 26.3162 7.03223 25.3766C7.03223 24.437 7.81139 23.6579 8.75098 23.6579H17.9176C18.8572 23.6579 19.6364 24.437 19.6364 25.3766C19.6364 26.3162 18.8572 27.0954 17.9176 27.0954ZM28.8031 17.3558C28.8031 18.937 27.5197 20.2204 25.9385 20.2204H9.89681C8.31556 20.2204 7.03223 18.937 7.03223 17.3558V12.7725C7.03223 11.1912 8.31556 9.90788 9.89681 9.90788H25.9385C27.5197 9.90788 28.8031 11.1912 28.8031 12.7725V17.3558Z" fill="#A1EDB1"/>
<path d="M25.3675 13.3447H10.4717V16.7822H25.3675V13.3447Z" fill="#A1EDB1"/>
<path d="M40.835 21.3676H39.1162V29.4114C41.4079 29.6635 43.2183 31.4281 43.6079 33.651C44.3641 32.6197 44.8454 31.3364 44.8454 29.9385V25.3551C44.8454 23.1551 43.035 21.3447 40.835 21.3447V21.3676Z" fill="#A1EDB1"/>
</svg>
